<?xml version="1.0" encoding="UTF-8"?>
<svg xmlns="http://www.w3.org/2000/svg" version="1.1" viewBox="0 0 100.14 97.84">
  <!-- Generator: Adobe Illustrator 29.6.0, SVG Export Plug-In . SVG Version: 2.1.1 Build 207)  -->
  <defs>
    <style>
      .st0 {
        fill: #8dc2ce;
      }

      .st1 {
        mix-blend-mode: hard-light;
        opacity: .9;
      }

      .st2 {
        isolation: isolate;
      }

      .st3 {
        fill: #fff;
      }
    </style>
  </defs>
  <g class="st2">
    <g id="Layer_1">
      <path class="st0" d="M98.01,61.34c.82-2.34,1.39-4.79,1.9-7.2.12-.56.19-1.13.21-1.71.05-1.16-.01-2.39-.03-3.51-.01-1.13.02-2.35-.07-3.51-.04-.55-.12-1.1-.23-1.64-.46-2.27-1.17-4.51-1.83-6.72-.17-.56-.37-1.12-.6-1.66-.2-.48-.42-.94-.66-1.4-1.08-2.1-2.32-4.14-3.55-6.16-2.02-3.31-5.06-6.06-7.81-8.7-1.57-1.51-3.32-2.82-5.16-3.97-3.39-2.11-6.92-4.19-10.59-5.8-.3-.13-.6-.26-.91-.38-2.27-2.63-5.03-4.62-8.29-5.96-1.89-.49-3.78-.98-5.68-1.47-3.82-.44-7.51.08-11.06,1.56-2.08.61-4.1,1.37-6.06,2.3-.95.45-1.88.93-2.79,1.45-2.47,1.4-4.99,2.78-7.36,4.36-1.8,1.2-3.51,2.53-5.11,3.99-2.13,1.93-4.15,3.99-6.13,6.07-.73.76-1.42,1.54-2.09,2.35-1.38,1.67-2.62,3.44-3.72,5.31-2.1,3.57-4.4,7.21-5.79,11.16-.19.55-.37,1.1-.53,1.67-.69,2.43-1.37,4.89-1.89,7.37-.25,1.21-.4,2.43-.43,3.66-.07,2.81-.16,5.75.24,8.57.07.47.15.93.25,1.39.5,2.24,1.17,4.47,1.83,6.67.29.96.65,1.89,1.08,2.79.2.43.42.84.66,1.25,1.14,2.03,2.26,4.1,3.55,6.05.54.82,1.14,1.59,1.78,2.33,1.85,2.11,3.85,4.11,5.95,5.97.76.67,1.56,1.29,2.4,1.86,2.41,1.61,4.95,3.06,7.56,4.34.93.46,1.89.84,2.87,1.16,1.39.45,2.82.78,4.23,1.14,1.43.37,2.88.79,4.34,1.08,1.07.21,2.16.35,3.25.41.52.03,1.03.05,1.55.05,2.4.01,4.82.02,7.22-.1,2.14-.11,4.26-.47,6.33-1.03,3.92-1.05,7.79-1.99,11.39-3.86.48-.25.95-.51,1.42-.78,2.05-1.18,4.14-2.32,6.13-3.6.93-.6,1.84-1.25,2.71-1.93.9-.71,1.77-1.45,2.61-2.23,2.17-2.02,4.29-4.12,6.3-6.31,1.51-1.65,2.9-3.41,4.17-5.25.68-.98,1.32-1.99,1.92-3.02,1.25-2.14,2.57-4.27,3.68-6.5.3-.61.58-1.24.8-1.88Z"/>
      <g class="st1">
        <path class="st3" d="M38.53,78.54c-1.9.51-4.01.66-6.32.46s-4.6-.8-6.86-1.81-4.27-2.5-6.04-4.46c-1.77-1.96-3.06-4.45-3.86-7.46-.79-2.97-.92-5.73-.36-8.29.56-2.56,1.55-4.83,2.99-6.8,1.43-1.97,3.1-3.63,5.01-4.96,1.91-1.33,3.79-2.24,5.64-2.74,1.76-.47,3.34-.7,4.74-.67,1.4.02,2.57.14,3.53.36s1.64.39,2.08.52c1.08.31,2.12.71,3.12,1.21,1,.5,1.67,1.35,1.99,2.56.16.6.21,1.25.15,1.94-.06.69-.25,1.49-.54,2.42-.99,3-2.31,4.72-3.98,5.17-.74.2-1.43.24-2.05.14-.62-.11-1.21-.26-1.76-.46-.55-.2-1.13-.36-1.73-.47-.6-.11-1.3-.06-2.08.15-.93.25-1.72.71-2.39,1.38-.67.68-1.13,1.46-1.38,2.35-.26.89-.26,1.82,0,2.79.26.97.73,1.79,1.4,2.46s1.46,1.12,2.35,1.38c.89.26,1.77.27,2.66.04.65-.17,1.17-.39,1.58-.65.4-.26.7-.5.89-.72.19-.22.31-.34.35-.36.55-.54,1.07-1.06,1.56-1.54.49-.48,1.04-.8,1.64-.96.79-.21,1.68-.14,2.67.22s2.17,1.05,3.54,2.07c1.3.95,2.14,1.92,2.54,2.94s.39,2.06-.02,3.13c-.41,1.08-1.17,2.21-2.29,3.41-.11.13-.52.52-1.21,1.18-.69.66-1.66,1.38-2.89,2.15-1.23.78-2.78,1.42-4.63,1.91Z"/>
        <path class="st3" d="M73.1,69.58c-2.13.57-4.4.72-6.81.45-2.41-.27-4.74-.97-7-2.07-2.26-1.11-4.24-2.64-5.93-4.6-1.69-1.96-2.91-4.32-3.66-7.11-.68-2.55-.84-5.07-.46-7.55s1.18-4.8,2.42-6.95c1.24-2.15,2.83-4,4.77-5.56,1.94-1.56,4.16-2.68,6.67-3.35,3.43-.92,6.76-.93,9.98-.03,3.22.9,6.04,2.52,8.46,4.85,2.42,2.33,4.08,5.22,5,8.65.78,2.92.92,5.67.42,8.24-.5,2.57-1.45,4.89-2.84,6.95-1.38,2.06-3.05,3.79-4.99,5.18-1.94,1.39-3.95,2.36-6.04,2.92ZM69.55,56.89c.7-.19,1.45-.57,2.26-1.17.81-.59,1.44-1.39,1.89-2.41.45-1.01.48-2.24.1-3.68-.31-1.16-.82-2.09-1.53-2.79-.71-.7-1.57-1.17-2.57-1.4-1-.23-2.09-.19-3.25.12-1.02.27-1.88.77-2.59,1.48-.71.71-1.2,1.56-1.48,2.56-.28,1-.27,2.05.03,3.16.37,1.39.99,2.42,1.87,3.08.87.66,1.8,1.05,2.77,1.16.97.11,1.81.07,2.5-.11Z"/>
      </g>
    </g>
  </g>
</svg>